. 
 
http://www.torrenting.com          :     Once & For all ;)


               www . Torrenting . Com 

(((((((((((((= Enjoy No RAR releases =))))))))))))))))))))


...................................NFO:....................................

.[pre][IMG]http://i.imgur.com/R5z58.png[/IMG]

*******************************************************************************
               Justice.League.Doom.2012.BRRip.XviD.AC3-SOLAPiSOKA
*******************************************************************************


[color=red]General Information:[/color]

Complete name                            : Justice.League.Doom.2012.BRRip.XviD.AC3-SOLAPiSOKA
Format                                   : AVI
Format/Info                              : Audio Video Interleave
File size                                : 1.94 GiB
Duration                                 : 1h 16mn
Overall bit rate                         : 3 610 Kbps
Language                                 : English
Subs                                     : N/A
Source                                   : 720p-HDChina Many THANKS
Encoder                                  : akosipalos

[color=lime]iMDB:[/color] http://www.imdb.com/title/tt2027128/

[color=red]Video[/color]

ID                                       : 0
Format                                   : MPEG-4 Visual
Format profile                           : Advanced Simple@L5
Format settings, BVOP                    : 2
Format settings, QPel                    : No
Format settings, GMC                     : No warppoints
Format settings, Matrix                  : Default (H.263)
Codec ID                                 : XVID
Codec ID/Hint                            : XviD
Duration                                 : 1h 16mn
Bit rate                                 : 3 154 Kbps
Width                                    : 720 pixels
Height                                   : 400 pixels
Display aspect ratio                     : 16:9
Frame rate                               : 23.976 fps
Color space                              : YUV
Chroma subsampling                       : 4:2:0
Bit depth                                : 8 bits
Scan type                                : Progressive
Compression mode                         : Lossy
Bits/(Pixel*Frame)                       : 0.457
Stream size                              : 1.69 GiB (87%)
Writing library                          : XviD 1.2.1 (UTC 2008-12-04)

[color=red]Audio[/color]

ID                                       : 1
Format                                   : AC-3
Format/Info                              : Audio Coding 3
Mode extension                           : CM (complete main)
Codec ID                                 : 2000
Duration                                 : 1h 16mn
Bit rate mode                            : Constant
Bit rate                                 : 448 Kbps
Channel(s)                               : 6 channels
Channel positions                        : Front: L C R, Side: L R, LFE
Sampling rate                            : 48.0 KHz
Bit depth                                : 16 bits
Compression mode                         : Lossy
Stream size                              : 246 MiB (12%)
Alignment                                : Aligned on interleaves
Interleave, duration                     : 64 ms (1.53 video frames)
Interleave, preload duration             : 192 ms


[color=red]Plot:[/color]

An adaptation of Mark Waid's "Tower of Babel" story from the JLA comic. Ra's al Ghul steals confidential 
files Batman has compiled on the members of the Justice League, and learns all their weaknesses. 


[color=red]Screens:[/color]

[IMG]http://i.imgur.com/7ynnz.jpg[/IMG]
[IMG]http://i.imgur.com/7gVW9.jpg[/IMG]
[IMG]http://i.imgur.com/aOIhq.jpg[/IMG]
[IMG]http://i.imgur.com/64xr0.jpg[/IMG]
[IMG]http://i.imgur.com/tLCt6.jpg[/IMG]


[center][b][color=red]GREETZ:[/color][/b]

Twisted | Bigguy | CTFX | Whitestag13 | THoRN | SANTi | PA4U2C | Jungledave | mtyy
| marsby | cld | Stortrapp | rizal | mannilim | Rock | Ulap | centserick2 | Galactica |
musikera | Tukmol | rock3r | canislupus | sickie | fun2knytz | lilyrose | Dreamer
 RiZAL Team Release | TRiNiTY | LEGi0N | LEGiTiMATE | HiVE-CM8 | BHRG | DTRG 
  CrEwSaDe | Rx | LKRG | THC | aTLas | SiC
  [/center]

[/pre]